<svg xmlns="http://www.w3.org/2000/svg" width="1600" height="900" viewBox="0 0 1600 900" role="img" aria-label="Herbal Tea tool-gift-set-picker.svg visual">
  <defs>
    <linearGradient id="g" x1="0" x2="1" y1="0" y2="1">
      <stop offset="0" stop-color="#f6efe2"/>
      <stop offset=".48" stop-color="#fffaf1"/>
      <stop offset="1" stop-color="#244833"/>
    </linearGradient>
    <pattern id="p" width="88" height="88" patternUnits="userSpaceOnUse">
      <path d="M0 44h88M44 0v88" stroke="#c08b4f" stroke-width="3" opacity=".16"/>
      <circle cx="44" cy="44" r="22" fill="none" stroke="#9b3d2f" stroke-width="2" opacity=".12"/>
    </pattern>
  </defs>
  <rect width="1600" height="900" fill="url(#g)"/>
  <rect width="1600" height="900" fill="url(#p)"/>
  <path d="M0 735C240 650 430 700 620 625c230-92 420-250 710-175 116 30 201 86 270 145v305H0Z" fill="#244833" opacity=".18"/>
  <path d="M120 710C340 590 510 630 720 520c240-126 520-130 760 18" stroke="#9b3d2f" stroke-width="18" stroke-linecap="round" opacity=".22" fill="none"/>
  <path d="M1040 250c180-180 380-150 470-40-190-20-320 80-470 40Z" fill="#9b3d2f" opacity=".55"/><path d="M1080 270c170-110 310-80 410-20" stroke="#c08b4f" stroke-width="10" fill="none"/>
  <g transform="translate(120 190)">
    <rect x="0" y="0" width="710" height="385" rx="34" fill="#ffffff" opacity=".78"/>
    <rect x="28" y="28" width="654" height="329" rx="24" fill="#f6efe2" opacity=".72"/>
    <text x="56" y="116" font-family="Georgia, serif" font-size="64" fill="#244833" font-weight="700">Herbal Tea</text>
    <text x="58" y="178" font-family="Arial, sans-serif" font-size="28" fill="#9b3d2f" opacity=".85">Tea Gift Set Picker</text>
    <path d="M58 238h360" stroke="#c08b4f" stroke-width="10" stroke-linecap="round"/>
    <circle cx="92" cy="296" r="28" fill="#c08b4f" opacity=".82"/>
    <circle cx="172" cy="296" r="28" fill="#244833" opacity=".78"/>
    <circle cx="252" cy="296" r="28" fill="#9b3d2f" opacity=".58"/>
  </g>
</svg>